<svg width="1920" height="9976" viewBox="0 0 1920 9976" fill="none" xmlns="http://www.w3.org/2000/svg">
<g clip-path="url(#clip0_348_279)">
<rect width="1920" height="9976" />
<g clip-path="url(#clip1_348_279)">
<path d="M1118.76 -179.5C1081.59 107.403 1213.86 736.567 2040.26 958C3073.26 1234.79 -26.7437 1630.5 -134.744 1854.5C-242.744 2078.5 -242.244 3099.5 272.256 3315.5C786.756 3531.5 1616.76 3772.5 1982.26 3731C2347.76 3689.5 2264.26 4519.5 2040.26 4752C1816.26 4984.5 1683.76 5233.5 1401.26 5374.5C1118.76 5515.5 670.257 5889 321.757 6022C-26.743 6155 -392.243 6653 -300.743 6927C-209.243 7201 271.758 7500 745.258 7724C1218.76 7948 1168.26 7848.5 1724.76 8097.5C2281.26 8346.5 1891.26 9443 1675.26 9633.5C1459.26 9824 1700.26 9840.5 1152.26 10015C604.258 10189.5 72.7578 10297 -68.2422 10305.5" stroke="#D1C4FF" stroke-width="24"/>
</g>
<g clip-path="url(#clip2_348_279)">
<path d="M1110.76 -691.5C1073.59 -404.597 1205.86 224.567 2032.26 446C3065.26 722.792 -34.7437 1118.5 -142.744 1342.5C-250.744 1566.5 -250.244 2587.5 264.256 2803.5C778.756 3019.5 1608.76 3260.5 1974.26 3219C2339.76 3177.5 2256.26 4007.5 2032.26 4240C1808.26 4472.5 1675.76 4721.5 1393.26 4862.5C1110.76 5003.5 662.257 5377 313.757 5510C-34.743 5643 -400.243 6141 -308.743 6415C-217.243 6689 263.758 6988 737.258 7212C1210.76 7436 1160.26 7336.5 1716.76 7585.5C2273.26 7834.5 1883.26 8931 1667.26 9121.5C1451.26 9312 1692.26 9328.5 1144.26 9503C596.258 9677.5 64.7578 9785 -76.2422 9793.5" stroke="#F8D2FF" stroke-width="24"/>
</g>
<g clip-path="url(#clip3_348_279)">
<path d="M1110.76 -691.5C1073.59 -404.597 1205.86 224.567 2032.26 446C3065.26 722.792 -34.7437 1118.5 -142.744 1342.5C-250.744 1566.5 -250.244 2587.5 264.256 2803.5C778.756 3019.5 1608.76 3260.5 1974.26 3219C2339.76 3177.5 2256.26 4007.5 2032.26 4240C1808.26 4472.5 1675.76 4721.5 1393.26 4862.5C1110.76 5003.5 662.257 5377 313.757 5510C-34.743 5643 -400.243 6141 -308.743 6415C-217.243 6689 263.758 6988 737.258 7212C1210.76 7436 1160.26 7336.5 1716.76 7585.5C2273.26 7834.5 1883.26 8931 1667.26 9121.5C1451.26 9312 1692.26 9328.5 1144.26 9503C596.258 9677.5 64.7578 9785 -76.2422 9793.5" stroke="#D1C4FF" stroke-width="24"/>
</g>
<g clip-path="url(#clip4_348_279)">
<path d="M1110.76 -691.5C1073.59 -404.597 1205.86 224.567 2032.26 446C3065.26 722.792 -34.7437 1118.5 -142.744 1342.5C-250.744 1566.5 -250.244 2587.5 264.256 2803.5C778.756 3019.5 1608.76 3260.5 1974.26 3219C2339.76 3177.5 2256.26 4007.5 2032.26 4240C1808.26 4472.5 1675.76 4721.5 1393.26 4862.5C1110.76 5003.5 662.257 5377 313.757 5510C-34.743 5643 -400.243 6141 -308.743 6415C-217.243 6689 263.758 6988 737.258 7212C1210.76 7436 1160.26 7336.5 1716.76 7585.5C2273.26 7834.5 1883.26 8931 1667.26 9121.5C1451.26 9312 1692.26 9328.5 1144.26 9503C596.258 9677.5 64.7578 9785 -76.2422 9793.5" stroke="#87D7D3" stroke-width="24"/>
</g>
<g clip-path="url(#clip5_348_279)">
<path d="M3988.32 -949.121C3871.07 -684.646 3818.89 -43.8503 4548.15 403.53C5459.72 962.756 2375.24 460.217 2207.97 644.237C2040.71 828.258 1750.74 1807.21 2182.53 2160.65C2614.32 2514.1 3341.47 2981.26 3703.67 3045.45C4065.88 3109.65 3749.7 3881.6 3468.82 4040.77C3187.93 4199.94 2990.07 4400.95 2679.13 4455.76C2368.19 4510.57 1831.97 4741.05 1460.03 4769.41C1088.09 4797.77 596.023 5171.21 605.794 5459.92C615.565 5748.63 991.631 6172.11 1381.84 6521.56C1772.05 6871.01 1751.95 6761.25 2214.62 7158.28C2677.29 7555.31 1991.47 8495.55 1730.2 8616.73C1468.93 8737.91 1695.28 8822.29 1120.28 8833.68C545.276 8845.08 5.15509 8796.93 -132.437 8764.97" stroke="#87D7D3" stroke-width="24"/>
</g>
</g>
<defs>
<clipPath id="clip0_348_279">
<rect width="1920" height="9976" fill="white"/>
</clipPath>
<clipPath id="clip1_348_279">
<rect width="1928" height="2023" fill="white" transform="translate(0 1)"/>
</clipPath>
<clipPath id="clip2_348_279">
<rect width="1920" height="3011" fill="white" transform="translate(0 2024)"/>
</clipPath>
<clipPath id="clip3_348_279">
<rect width="1920" height="2615" fill="white" transform="translate(0 5035)"/>
</clipPath>
<clipPath id="clip4_348_279">
<rect width="1920" height="744" fill="white" transform="translate(0 7650)"/>
</clipPath>
<clipPath id="clip5_348_279">
<rect width="1920" height="530" fill="white" transform="translate(0 8394)"/>
</clipPath>
</defs>
</svg>
